<svg viewBox="0 0 30 30" fill="currentColor" xmlns="http://www.w3.org/2000/svg">

    <symbol id="Complain" viewBox="0 0 20 20">
        <path d="M1 12.4V3.156C1 2.517 1.403 2 1.9 2h.7a2 2 0 0 1 2 2v7.556a2 2 0 0 1-2 2h-.7c-.497 0-.9-.518-.9-1.156ZM16.883 12.286H13.5a.563.563 0 0 0-.494.282.561.561 0 0 0-.007.567l1.193 2.143c.262.47.289 1.021.075 1.514a1.703 1.703 0 0 1-1.16.981l-.842.21a.572.572 0 0 1-.564-.172l-4.567-5.063a2.852 2.852 0 0 1-.735-1.91v-5.98A2.864 2.864 0 0 1 9.262 2h5.698c1.286 0 2.422.865 2.761 2.102L18.944 9.7a2.116 2.116 0 0 1-2.061 2.585Z" fill="currentColor" />
    </symbol>

    <symbol id="Promote" viewBox="0 0 20 20">
        <path d="M20 5.472c0-1.393-.497-2.786-1.59-3.88C17.316.497 15.924 0 14.533 0c-1.591 0-3.182.696-4.374 1.89L8.17 4.377c-.198-.1-.497-.199-.696-.199-1.192 0-2.485.597-3.678 1.791-.894.895-3.578 4.377-3.578 4.377-.554.555-.001 1.817 1.093 1.393l2.784-.995 1.384 2.289-1.786 1.787a.847.847 0 1 0 1.197 1.197l1.79-1.79 2.683 1.392-1.093 3.184c-.205 1.094 1.015 1.47 1.49.994 0 0 3.48-2.686 4.375-3.581 1.093-1.194 1.69-2.487 1.79-3.581 0-.299 0-.498-.1-.796l2.187-1.89C19.304 8.654 20 7.062 20 5.471Zm-6.163 3.183a2.462 2.462 0 0 1-2.486-2.487 2.462 2.462 0 0 1 2.486-2.487 2.462 2.462 0 0 1 2.485 2.487 2.462 2.462 0 0 1-2.485 2.487Z" fill="currentColor" />
    </symbol>

    <symbol id="Star" viewBox="0 0 30 30">
        <path d="M13.606.973a1.485 1.485 0 0 1 2.788 0l3.043 7.653c.217.547.709.92 1.273.968l7.9.662c1.337.112 1.88 1.86.86 2.773l-6.018 5.393c-.43.385-.618.989-.486 1.565l1.838 8.063c.312 1.366-1.109 2.446-2.255 1.714l-6.762-4.321a1.453 1.453 0 0 0-1.574 0l-6.763 4.32c-1.145.733-2.566-.347-2.255-1.713l1.84-8.063a1.623 1.623 0 0 0-.487-1.565L.53 13.029c-1.02-.914-.477-2.66.86-2.773l7.9-.662a1.517 1.517 0 0 0 1.273-.968L13.606.973Z" fill="currentColor" />
    </symbol>

    <symbol id="ShareAd" viewBox="0 0 18 20">
        <path fill-rule="evenodd" clip-rule="evenodd" d="M14.319 7.2C16.352 7.2 18 5.588 18 3.6S16.352 0 14.32 0c-2.034 0-3.682 1.612-3.682 3.6 0 .116.005.231.016.344L5.925 7.145A3.72 3.72 0 0 0 3.682 6.4C1.648 6.4 0 8.012 0 10s1.648 3.6 3.682 3.6a3.72 3.72 0 0 0 2.243-.745l4.728 3.2a3.557 3.557 0 0 0-.016.345c0 1.988 1.648 3.6 3.682 3.6C16.352 20 18 18.388 18 16.4s-1.648-3.6-3.681-3.6a3.713 3.713 0 0 0-2.605 1.055L7.263 10.84a3.533 3.533 0 0 0 0-1.682l4.452-3.014A3.712 3.712 0 0 0 14.319 7.2Z" fill="currentColor" />
    </symbol>

    <symbol id="ThisMyBull" viewBox="0 0 20 20">
        <path fill-rule="evenodd" clip-rule="evenodd" d="M14.748 4.348c0 2.401-1.902 4.348-4.249 4.348-2.347 0-4.249-1.947-4.249-4.348S8.152 0 10.5 0c2.346 0 4.248 1.947 4.248 4.348ZM18.601 15.224c1.35 2.391-.94 4.776-3.64 4.776H6.039c-2.698 0-4.989-2.385-3.64-4.776 1.616-2.863 4.64-4.79 8.102-4.79 3.463 0 6.486 1.927 8.101 4.79Z" fill="currentColor" />
    </symbol>

    <symbol id="CrossBtn" viewBox="0 0 16 16" >
        <path fill-rule="evenodd" clip-rule="evenodd" d="M1.707.293A1 1 0 0 0 .293 1.707L6.586 8 .293 14.293a1 1 0 1 0 1.414 1.414L8 9.414l6.293 6.293a1 1 0 0 0 1.414-1.414L9.414 8l6.293-6.293A1 1 0 0 0 14.293.293L8 6.586 1.707.293z" fill="currentColor"/>
    </symbol>

    <symbol id="Verified" viewBox="0 0 20 20" class="css-xylcl3 e1eg0jax1"><defs><linearGradient id="official_svg__a" x1="0%" x2="100%" y1="0%" y2="100%"><stop offset="0%" stop-color="#3EA4FF"></stop><stop offset="100%" stop-color="#00C3FF"></stop></linearGradient></defs><g fill="none" fill-rule="evenodd"><path fill="url(#official_svg__a)" fill-rule="nonzero" d="m11.357.535.095.095 1.068 1.142c.391.42.945.649 1.518.63l1.563-.054a1.987 1.987 0 0 1 2.052 1.918V4.4L17.6 5.963a1.98 1.98 0 0 0 .63 1.518l1.14 1.069c.801.749.844 2.006.095 2.807l-.046.048-1.19 1.115a1.98 1.98 0 0 0-.63 1.518l.053 1.563a1.98 1.98 0 0 1-.527 1.415l-.12.118c-.336.307-.78.5-1.27.518H15.6l-1.563-.053a1.98 1.98 0 0 0-1.518.63L11.45 19.37a1.986 1.986 0 0 1-2.807.095l-.095-.095-1.068-1.142a1.984 1.984 0 0 0-1.518-.63l-1.563.054a1.977 1.977 0 0 1-1.277-.41l-.129-.11-.12-.12a1.973 1.973 0 0 1-.525-1.278V15.6l.053-1.563a1.98 1.98 0 0 0-.63-1.518L.63 11.45a1.986 1.986 0 0 1-.095-2.807l.095-.095L1.772 7.48c.42-.391.649-.945.63-1.518L2.347 4.4a1.987 1.987 0 0 1 1.918-2.052H4.4l1.563.053a1.98 1.98 0 0 0 1.518-.63L8.55.63a1.986 1.986 0 0 1 2.807-.095z"></path><path fill="#FFF" d="M14.658 7.148c.04.343-.06.687-.277.955l-4.189 5.186a1.33 1.33 0 0 1-1.743.282l-2.513-1.595a1.288 1.288 0 0 1-.393-1.792c.4-.604 1.21-.776 1.82-.387l1.511.96 3.446-4.268a1.331 1.331 0 0 1 1.85-.207c.273.211.449.524.488.866z"></path></g></symbol>

    <symbol id="Info" viewBox="0 0 20 20">
        <path fill="currentColor" fill-rule="evenodd" d="M10 20c5.523 0 10-4.477 10-10S15.523 0 10 0 0 4.477 0 10s4.477 10 10 10zm.143-16.5a1.5 1.5 0 1 0 .001 3.001 1.5 1.5 0 0 0-.001-3.001zm-.607 4.498c.546-.002 1.101.188 1.508.598.41.41.601.976.599 1.545v.006a3.338 3.338 0 0 1-.262 1.242l-.682 1.704-.133.332c-.068.17-.088.3-.088.386a.33.33 0 0 0 .02.13.084.084 0 0 0 .018.032c.005.005.011.01.023.014.015.005.05.015.116.016.156.002.523-.09.99-.528.36-.336.958-.424 1.39-.058.412.348.498 1.007.07 1.428-.755.742-1.606 1.153-2.453 1.157a2.165 2.165 0 0 1-1.556-.62c-.412-.414-.62-.984-.618-1.57a3.07 3.07 0 0 1 .232-1.13l.237-.595.58-1.446c.09-.227.116-.395.116-.5a.369.369 0 0 0-.017-.13l-.001-.003a.342.342 0 0 0-.092-.011h-.002c-.164-.002-.576.109-1.082.59-.358.34-.958.426-1.39.06-.412-.348-.496-1.005-.071-1.426.782-.776 1.666-1.215 2.546-1.223h.002z" clip-rule="evenodd"/>
    </symbol>
</svg>
